<svg width="40" height="40" viewBox="0 0 40 40" fill="none" xmlns="http://www.w3.org/2000/svg">
<path d="M29.9573 13.3313C32.5682 13.2793 35.046 12.5542 36.8651 11.3099C38.6842 10.0655 39.7017 8.39968 39.7017 6.66565C39.7017 4.93168 38.6842 3.26585 36.8651 2.02148C35.046 0.777095 32.5682 0.0520192 29.9573 0H9.87178C7.26086 0.0520192 4.78312 0.777095 2.96399 2.02148C1.1448 3.26585 0.127385 4.93168 0.127385 6.66565C0.127385 8.39968 1.1448 10.0655 2.96399 11.3099C4.78312 12.5542 7.26086 13.2793 9.87178 13.3313C7.238 13.3616 4.72756 14.0774 2.8811 15.3246C1.0347 16.5717 0 18.2504 0 19.999C0 21.7476 1.0347 23.4263 2.8811 24.6734C4.72756 25.9206 7.238 26.6364 9.87178 26.6667C7.25088 26.7093 4.75896 27.4304 2.92797 28.676C1.09698 29.9216 0.0721189 31.5929 0.0721189 33.3333C0.0721189 35.0737 1.09698 36.7451 2.92797 37.9907C4.75896 39.2363 7.25088 39.9574 9.87178 40C12.5353 39.9989 15.0893 39.2959 16.9723 38.0455C18.8555 36.7951 19.9137 35.0994 19.9145 33.3313V13.3313H29.9573Z" fill="white" fill-opacity="0.9"/>
<path d="M29.9573 26.6645C35.5037 26.6645 40 23.6798 40 19.9979C40 16.316 35.5037 13.3312 29.9573 13.3312C24.4108 13.3312 19.9145 16.316 19.9145 19.9979C19.9145 23.6798 24.4108 26.6645 29.9573 26.6645Z" fill="white" fill-opacity="0.9"/>
</svg>
