<svg width="40" height="40" viewBox="0 0 40 40" fill="none" xmlns="http://www.w3.org/2000/svg">
<path d="M0 0L3.59819 35.8943L19.9973 40L36.3309 35.8943L40 0H0ZM32.4383 8.51441L32.1766 10.7837L32.084 11.7212H12.9263L13.3733 16.25H31.6424L31.4624 17.4183L30.3067 29.0625L30.214 29.8413L20.0191 32.3221V32.3365H19.9537L19.9373 32.3414V32.3365H19.9318L9.64969 29.8366L9.02822 22.8846H13.9948L14.3492 26.4038L19.9318 27.7356H19.9537L25.5145 26.4087L26.136 20.7067H19.9373V20.7019H8.76651L7.52353 8.51441L7.4308 7.34617H32.5255L32.4383 8.51441Z" fill="white" fill-opacity="0.9"/>
</svg>
