<svg width="40" height="40" viewBox="0 0 40 40" fill="none" xmlns="http://www.w3.org/2000/svg">
<path d="M18.8636 30.2405C18.8261 30.3305 18.8448 30.2905 18.8636 30.2405V30.2405ZM34.432 22.9911C33.1746 22.9911 31.9348 23.3744 30.8074 24.116C30.4387 23.1244 30.0575 22.2578 29.995 21.6079C29.92 20.8496 29.8387 20.3997 29.9262 19.4997C30.0137 18.5998 30.4074 17.3249 30.4012 17.2332C30.3949 17.1416 30.3137 16.6833 29.5075 16.6749C28.7013 16.6666 28.0077 16.8833 27.9264 17.1666C27.7838 17.6842 27.673 18.2165 27.5952 18.7581C27.4515 19.733 25.9841 23.2161 25.153 25.0326C24.878 24.3243 24.6468 23.6994 24.5968 23.1994C24.5218 22.4411 24.4405 21.9912 24.528 21.0913C24.6155 20.1913 25.0092 18.9165 25.003 18.8248C24.9967 18.7331 24.9155 18.2748 24.1105 18.2665C23.3056 18.2582 22.6107 18.4748 22.5295 18.7581C22.4482 19.0414 22.3607 19.708 22.1982 20.3497C22.0357 20.9913 20.0797 26.7908 19.5685 28.299C19.306 29.0656 19.081 29.6823 18.9186 30.0989C18.8936 30.1655 18.8748 30.2072 18.8623 30.2405C18.8811 30.1989 18.8936 30.1572 18.8936 30.1738C18.7561 30.5322 18.6748 30.7321 18.6748 30.7321V30.7405C18.5686 31.0071 18.4499 31.2488 18.3936 31.2488C18.3561 31.2488 18.2749 30.5489 18.4123 29.5906C18.7061 27.5741 19.3998 24.441 19.3935 24.3327C19.3872 24.2743 19.5248 23.7327 18.9373 23.4411C18.3686 23.1661 18.1624 23.6244 18.1124 23.6244C18.0624 23.6244 18.0249 23.7911 18.0249 23.7911C18.0249 23.7911 18.6561 20.258 16.8125 20.258C15.6626 20.258 14.0628 21.9412 13.2766 23.4661C12.7829 23.8244 11.7143 24.5993 10.5894 25.4243L9.29576 26.3742C9.26453 26.3325 9.23953 26.2909 9.20825 26.2492C6.97099 23.0661 2.8414 20.8163 3.01638 16.5416C3.07888 14.9834 3.48508 10.8921 10.9581 5.92584C17.0825 1.8595 21.9783 2.97605 22.8219 5.45921C24.0343 9.00057 20.2034 15.5917 13.8441 16.5416C11.4193 16.8999 10.1457 15.6501 9.82695 15.1834C9.49574 14.6918 9.44575 14.6668 9.32076 14.7585C9.11454 14.9084 9.24577 15.3417 9.32076 15.6C9.50822 16.2583 10.2894 17.4249 11.6205 18.0082C12.7892 18.5165 15.6314 18.7998 19.0673 17.0249C22.9282 15.0417 25.9341 9.51723 25.0517 4.89259C24.1543 0.192969 18.3099 -1.34857 12.7842 1.26787C9.49074 2.82609 5.92985 5.27586 3.36885 8.46728C0.325396 12.267 -0.160806 15.575 0.0391739 16.9583C0.751605 21.8662 5.82487 25.0659 7.85467 27.4324L7.57341 27.6407C6.55479 28.3157 2.68766 31.0155 1.71901 33.8652C0.625366 37.0983 1.90024 39.4148 2.73641 39.7314C5.34863 40.698 8.02213 38.9565 9.45951 36.0984C10.8968 33.2403 10.7219 29.5072 10.0594 27.8074C10.0532 27.7824 10.0407 27.7657 10.0344 27.7407C10.7843 27.1485 11.5406 26.5707 12.3029 26.0075C12.053 26.9074 11.8717 27.9907 11.778 29.5573C11.6655 31.3904 12.2342 33.7652 12.9716 34.6985C13.2966 35.1068 13.6891 35.1151 13.9341 35.1151C14.7965 35.1151 15.1839 34.1652 15.6151 33.032C16.1463 31.6488 16.615 30.0405 16.615 30.0405C16.615 30.0405 16.0276 34.3902 17.6337 34.3902C18.2211 34.3902 18.8086 33.382 19.071 32.8653V32.8736C19.071 32.8736 19.0836 32.8403 19.1148 32.7736C19.1773 32.6487 19.2085 32.5736 19.2085 32.5736V32.5487C19.446 32.007 19.9647 30.7655 20.7459 28.7157C21.7583 26.0659 22.7257 22.7578 22.7257 22.7578C22.8194 23.4844 22.9494 24.2027 23.1132 24.9076C23.2881 25.6992 23.6568 26.5658 23.9506 27.4074C23.7131 27.8407 23.5694 28.0907 23.5694 28.0907C23.5694 28.0974 23.5718 28.1024 23.5756 28.1073C23.3881 28.4406 23.1756 28.799 22.9569 29.149C22.1583 30.4155 21.2071 31.8654 21.0821 32.282C20.9321 32.7736 20.9696 33.1403 21.2571 33.4236C21.4696 33.6402 21.8445 33.6736 22.2382 33.6319C22.9569 33.5652 23.4631 33.3319 23.7068 33.182C24.1564 32.9672 24.5813 32.6699 24.9692 32.2987C25.7504 31.5321 26.2253 30.4322 26.1816 28.9823C26.1566 28.1824 25.9629 27.3824 25.7254 26.6325C25.7941 26.4992 25.8691 26.3575 25.9379 26.2159C26.7511 24.5979 27.4839 22.9105 28.1314 21.1646C28.2251 21.8912 28.3539 22.6095 28.5189 23.3144C28.6689 23.9894 28.9626 24.731 29.2313 25.4559C28.0689 26.7141 27.3502 28.1724 27.1015 29.1306C26.6391 30.9055 27.0015 31.7054 27.6827 31.8887C27.9889 31.972 28.4264 31.7804 28.7513 31.5971C29.2338 31.3821 29.6888 31.0705 30.1 30.6721C30.8812 29.9055 31.6373 28.8306 31.586 27.3724C31.5673 26.7141 31.4298 26.0559 31.2486 25.4226C32.2297 24.8726 33.5046 24.5726 35.1295 24.8227C38.6091 25.3643 39.2903 28.264 39.1591 29.4722C39.0278 30.6805 38.2967 31.3555 38.0529 31.5554C37.8092 31.7554 37.7342 31.8304 37.753 31.9804C37.7842 32.197 37.8967 32.1887 38.1029 32.1387C38.3904 32.072 39.9277 31.1555 39.9965 28.9139C40.0965 26.0808 38.0529 22.9645 34.4345 22.9895L34.432 22.9911ZM7.61093 35.0485C6.46104 36.7233 4.84996 37.3566 4.15627 36.8233C3.41259 36.2467 3.70631 33.7819 5.12365 31.9971C5.98609 30.9138 7.09846 29.9139 7.83591 29.2973C8.00465 29.164 8.24835 28.964 8.54832 28.7223C8.57271 28.7015 8.59771 28.682 8.62331 28.664C8.67958 28.614 8.74206 28.5723 8.80457 28.5223C9.322 31.0555 8.82329 33.2886 7.61093 35.0468V35.0485ZM16.0076 27.4324C15.6076 28.7406 14.7652 32.0737 14.2515 31.8987C13.8141 31.7488 13.5453 29.2073 14.164 26.7075C14.4765 25.4493 15.1389 23.9494 15.5326 23.3661C16.1638 22.4245 16.8575 22.1245 17.02 22.4995C17.2387 22.9911 16.2576 26.6158 16.0076 27.4324ZM22.9444 31.8487C22.7757 31.9654 22.6194 32.0404 22.5445 31.9821C22.4882 31.9404 22.6132 31.7821 22.6132 31.7821C22.6132 31.7821 23.4818 30.5405 23.8256 29.9739C24.0255 29.6406 24.2568 29.249 24.5067 28.8157C24.5067 28.8573 24.513 28.899 24.513 28.949C24.5055 30.4405 23.4306 31.4488 22.9432 31.8487H22.9444ZM28.2939 30.2239C28.1689 30.1072 28.1877 29.7156 28.6063 28.499C28.7688 28.024 29.1438 27.2241 29.7937 26.4575C29.8675 26.7475 29.9075 27.0508 29.9125 27.3574C29.9062 29.2323 28.9001 29.9322 28.2939 30.2239Z" fill="white" fill-opacity="0.9"/>
</svg>
