<svg width="65" height="65" viewBox="0 0 65 65" fill="none" xmlns="http://www.w3.org/2000/svg">
<path fill-rule="evenodd" clip-rule="evenodd" d="M11 0C4.92487 0 0 4.92493 0 11V54C0 60.0751 4.92487 65 11 65H54C60.0751 65 65 60.0751 65 54V11C65 4.92493 60.0751 0 54 0H11ZM53 53V41.9028H41.9262V46.0605C38.9785 46.4664 34.5714 46.2257 30.8292 45.2322C27.834 44.4369 25.1572 43.2672 23.004 41.9028H13V53H53ZM47.7999 44.2809H50.6L50.5999 49.0367H47.7999V44.2809ZM30.8978 43.1409C34.2148 44.0215 37.4121 44.6313 40.0248 44.2715V34.0427L26.4301 28.9915L19.5849 35.7738C20.9796 38.708 25.3149 41.6587 30.8978 43.1409ZM34.529 24.2009C34.1945 24.1582 33.8524 24.136 33.5041 24.136C30.6561 24.136 28.6426 25.62 27.5668 27.7448L39.9211 32.4966C40.2679 31.7795 40.4595 30.9923 40.4595 30.1661C40.4595 28.2424 39.4207 26.5293 37.8027 25.425L43.3878 14.5643L40.2891 13L34.529 24.2009Z" fill="white"/>
</svg>
