<svg width="65" height="65" viewBox="0 0 65 65" fill="none" xmlns="http://www.w3.org/2000/svg">
<path fill-rule="evenodd" clip-rule="evenodd" d="M11 0C4.92487 0 0 4.92487 0 11V54C0 60.0751 4.92487 65 11 65H54C60.0751 65 65 60.0751 65 54V11C65 4.92487 60.0751 0 54 0H11ZM18.2072 32.4034L25.7626 43.7378L22.7581 45.7401L13.8667 32.4034L22.7581 19.0667L25.7626 21.069L18.2072 32.4034ZM38.8113 21.069L46.3667 32.4034L38.8113 43.7378L41.8158 45.7401L50.7072 32.4034L41.8158 19.0667L38.8113 21.069ZM27.1558 26.1786L30.3856 24.5637L37.4172 38.627L34.1875 40.2419L27.1558 26.1786Z" fill="white"/>
</svg>
