<svg width="65" height="65" viewBox="0 0 65 65" fill="none" xmlns="http://www.w3.org/2000/svg">
<path fill-rule="evenodd" clip-rule="evenodd" d="M11 0C4.92487 0 0 4.92487 0 11V54C0 60.0751 4.92487 65 11 65H54C60.0751 65 65 60.0751 65 54V11C65 4.92487 60.0751 0 54 0H11ZM13 20.3625L18.5053 14.8571L28.8207 25.1763L23.3191 30.6778L20.5684 27.9271L23.3191 25.1763L21.9438 23.8009L19.193 26.5517L16.4422 23.8009L19.193 21.0502L17.8176 19.6748L15.0669 22.4255L13 20.3625ZM38.6079 20.8906L43.7941 15.7044C44.8419 16.4497 45.852 17.2684 46.7918 18.2082C47.7316 19.148 48.5503 20.1581 49.2956 21.2059L44.1094 26.3921L38.6079 20.8906ZM15.2226 44.2758L35.8571 23.6413L41.3587 29.1429L20.7242 49.7774L13.8473 51.1527L15.2226 44.2758ZM34.3222 41.6809L39.8237 36.1793L50.1429 46.4947L44.6375 52L42.5745 49.9331L45.3252 47.1824L43.9498 45.807L41.1991 48.5578L38.4483 45.807L41.1991 43.0562L39.8237 41.6809L37.0729 44.4316L34.3222 41.6809Z" fill="white"/>
</svg>
