<svg width="25" height="25" viewBox="0 0 25 25" fill="none" xmlns="http://www.w3.org/2000/svg">
<path d="M12.5 0C5.59375 0 0 5.73898 0 12.8174C0 18.4816 3.58125 23.2849 8.54688 24.9779C9.17188 25.0986 9.40104 24.7023 9.40104 24.3616C9.40104 24.0571 9.39062 23.2507 9.38542 22.1826C5.90833 22.9559 5.175 20.4629 5.175 20.4629C4.60625 18.9836 3.78437 18.5884 3.78437 18.5884C2.65208 17.7937 3.87187 17.8097 3.87187 17.8097C5.12708 17.8995 5.78646 19.1299 5.78646 19.1299C6.90104 21.0899 8.7125 20.5238 9.42708 20.1959C9.53958 19.3671 9.86146 18.802 10.2188 18.4816C7.44271 18.1611 4.525 17.0589 4.525 12.1477C4.525 10.7484 5.00937 9.60555 5.81146 8.70834C5.67083 8.3847 5.24896 7.0816 5.92083 5.31601C5.92083 5.31601 6.96771 4.97207 9.35833 6.62979C10.3583 6.3446 11.4208 6.20361 12.4833 6.1972C13.5458 6.20361 14.6083 6.3446 15.6083 6.62979C17.9833 4.97207 19.0302 5.31601 19.0302 5.31601C19.7021 7.0816 19.2802 8.3847 19.1552 8.70834C19.9521 9.60555 20.4365 10.7484 20.4365 12.1477C20.4365 17.0717 17.5146 18.1558 14.7333 18.4709C15.1708 18.8554 15.5771 19.6416 15.5771 20.8421C15.5771 22.5575 15.5615 23.9354 15.5615 24.3519C15.5615 24.6884 15.7802 25.0889 16.4208 24.9608C21.4219 23.2796 25 18.473 25 12.8174C25 5.73898 19.4031 0 12.5 0Z" fill="white"/>
</svg>
