<svg width="25" height="25" viewBox="0 0 25 25" fill="none" xmlns="http://www.w3.org/2000/svg">
<path fill-rule="evenodd" clip-rule="evenodd" d="M1.71862 10.7623C8.42949 7.23426 12.9045 4.90834 15.1435 3.78456C21.5365 0.575968 22.8649 0.0186008 23.7307 0.000196234C23.9212 -0.00385165 24.347 0.0530967 24.6228 0.32315C24.8557 0.551178 24.9197 0.859211 24.9504 1.07541C24.9811 1.2916 25.0192 1.7841 24.9889 2.16893C24.6424 6.56125 23.1434 17.2203 22.3808 22.1397C22.0581 24.2214 21.4227 24.9193 20.8076 24.9876C19.4707 25.1361 18.4556 23.9216 17.1608 22.8974C15.1348 21.2948 13.9901 20.2972 12.0235 18.7333C9.75066 16.926 11.224 15.9327 12.5193 14.3094C12.8583 13.8845 18.7484 7.41981 18.8624 6.83335C18.8767 6.76001 18.8899 6.48661 18.7553 6.34225C18.6207 6.19788 18.422 6.24725 18.2787 6.28651C18.0754 6.34216 14.8388 8.92363 8.56858 14.0309C7.64986 14.7921 6.8177 15.163 6.07212 15.1436C5.25018 15.1222 3.6691 14.5828 2.49372 14.1218C1.05207 13.5563 -0.0937162 13.2574 0.00605648 12.297C0.0580243 11.7968 0.628879 11.2853 1.71862 10.7623Z" fill="white"/>
</svg>
