<svg width="25" height="25" viewBox="0 0 25 25" fill="none" xmlns="http://www.w3.org/2000/svg">
<path fill-rule="evenodd" clip-rule="evenodd" d="M12.5001 6.08108C8.955 6.08108 6.08116 8.95492 6.08116 12.5001C6.08116 16.0451 8.955 18.9189 12.5001 18.9189C16.0452 18.9189 18.919 16.0451 18.919 12.5001C18.919 8.95492 16.0452 6.08108 12.5001 6.08108ZM12.5001 16.6667C10.1989 16.6667 8.33342 14.8012 8.33342 12.5001C8.33342 10.1988 10.1989 8.33334 12.5001 8.33334C14.8013 8.33334 16.6667 10.1988 16.6667 12.5001C16.6667 14.8012 14.8013 16.6667 12.5001 16.6667Z" fill="white"/>
<path d="M19.1726 7.32747C20.001 7.32747 20.6726 6.65593 20.6726 5.82746C20.6726 4.99904 20.001 4.32751 19.1726 4.32751C18.3441 4.32751 17.6725 4.99904 17.6725 5.82746C17.6725 6.65593 18.3441 7.32747 19.1726 7.32747Z" fill="white"/>
<path fill-rule="evenodd" clip-rule="evenodd" d="M12.5 0C9.10521 0 8.67953 0.0144043 7.34627 0.0752444C6.01579 0.135938 5.1071 0.347218 4.31198 0.656253C3.49 0.975687 2.79288 1.40313 2.09801 2.09806C1.40308 2.79293 0.975639 3.49005 0.656204 4.31203C0.347169 5.1071 0.135889 6.01579 0.0751956 7.34627C0.0143555 8.67953 0 9.10521 0 12.5C0 15.8948 0.0143555 16.3205 0.0751956 17.6537C0.135889 18.9842 0.347169 19.8929 0.656204 20.688C0.975639 21.5099 1.40308 22.2071 2.09801 22.902C2.79288 23.5969 3.49 24.0244 4.31198 24.3438C5.1071 24.6528 6.01579 24.8641 7.34627 24.9248C8.67953 24.9856 9.10521 25 12.5 25C15.8948 25 16.3205 24.9856 17.6537 24.9248C18.9842 24.8641 19.8929 24.6528 20.688 24.3438C21.5099 24.0244 22.2071 23.5969 22.902 22.902C23.5969 22.2071 24.0244 21.5099 24.3438 20.688C24.6528 19.8929 24.8641 18.9842 24.9248 17.6537C24.9856 16.3205 25 15.8948 25 12.5C25 9.10521 24.9856 8.67953 24.9248 7.34627C24.8641 6.01579 24.6528 5.1071 24.3438 4.31203C24.0244 3.49005 23.5969 2.79293 22.902 2.09806C22.2071 1.40313 21.5099 0.975687 20.688 0.656253C19.8929 0.347218 18.9842 0.135938 17.6537 0.0752444C16.3205 0.0144043 15.8948 0 12.5 0ZM12.5 2.2523C15.8377 2.2523 16.233 2.265 17.5511 2.32516C18.7698 2.38077 19.4317 2.58438 19.8721 2.75553C20.4556 2.98229 20.872 3.25319 21.3094 3.69059C21.7469 4.12799 22.0177 4.54445 22.2445 5.12785C22.4157 5.56833 22.6193 6.2302 22.6749 7.44891C22.735 8.76703 22.7477 9.16239 22.7477 12.5C22.7477 15.8377 22.735 16.233 22.6749 17.5511C22.6193 18.7698 22.4157 19.4317 22.2445 19.8721C22.0177 20.4556 21.7469 20.872 21.3094 21.3094C20.872 21.7469 20.4556 22.0177 19.8721 22.2445C19.4317 22.4157 18.7698 22.6193 17.5511 22.6748C16.2332 22.735 15.8379 22.7477 12.5 22.7477C9.1621 22.7477 8.76688 22.735 7.44891 22.6748C6.2302 22.6193 5.56833 22.4157 5.12785 22.2445C4.5444 22.0177 4.12799 21.7469 3.69054 21.3094C3.25314 20.872 2.98224 20.4556 2.75553 19.8721C2.58434 19.4317 2.38072 18.7698 2.32511 17.5511C2.26495 16.233 2.25225 15.8377 2.25225 12.5C2.25225 9.16239 2.26495 8.76703 2.32511 7.44891C2.38072 6.2302 2.58434 5.56833 2.75553 5.12785C2.98224 4.54445 3.25314 4.12799 3.69054 3.69059C4.12799 3.25319 4.5444 2.98229 5.12785 2.75553C5.56833 2.58438 6.2302 2.38077 7.44891 2.32516C8.76703 2.265 9.16239 2.2523 12.5 2.2523Z" fill="white"/>
</svg>
