<svg width="25" height="25" viewBox="0 0 25 25" fill="none" xmlns="http://www.w3.org/2000/svg">
<path fill-rule="evenodd" clip-rule="evenodd" d="M17.6436 6.82129C16.3269 5.5904 14.5698 4.91984 12.7518 4.94739C9.42507 4.94739 6.59967 7.14737 5.59225 10.1098V10.1098C5.0581 11.6622 5.0581 13.3432 5.59225 14.8956H5.59693C6.60901 17.8535 9.42974 20.0534 12.7565 20.0534C14.4738 20.0534 15.9481 19.6229 17.0907 18.8624V18.8593C18.4355 17.9867 19.3539 16.6134 19.6397 15.061H12.7518V10.2476H24.7798C24.9297 11.0835 25 11.9378 25 12.7875C25 16.5893 23.6139 19.8036 21.2021 21.9806L21.2046 21.9825C19.0914 23.8931 16.1911 25 12.7518 25C7.93035 25 3.52121 22.3361 1.35647 18.1152V18.1152C-0.45216 14.5833 -0.452155 10.4221 1.35648 6.89022H1.35651L1.35647 6.89019C3.52121 2.66472 7.93035 0.000842331 12.7518 0.000842331C15.9193 -0.0359008 18.979 1.1307 21.2843 3.25261L17.6436 6.82129Z" fill="white"/>
</svg>
