<svg width="40" height="40" viewBox="0 0 40 40" fill="none" xmlns="http://www.w3.org/2000/svg">
<path d="M37.5219 10.5229C34.5 4.51335 26.8516 -1.17043 17.2262 0.208735C1.8004 2.41075 -6.32663 22.267 5.98983 34.4722C20.887 49.2348 48.3878 32.0946 37.5219 10.5229ZM15.7777 38.891C7.81087 37.5119 1.07407 29.0846 0.915898 20.4711C0.714023 9.71485 8.05645 2.62228 16.8661 1.3108C29.1951 -0.527386 40.3107 8.62124 38.6124 22.6816C37.2222 34.2162 26.6498 40.7758 15.7777 38.891ZM12.1543 11.2611C11.6652 11.8724 10.096 11.3838 9.61526 11.9972C11.5924 18.0893 13.3468 24.414 15.7777 30.047C18.0961 23.9465 20.6539 17.9983 16.864 11.9972C16.2563 11.3838 14.2147 12.232 14.325 10.8909C15.9441 10.231 23.2137 10.231 24.835 10.8909C24.8308 12.1136 22.7913 11.2654 22.298 11.9972C24.3022 17.9433 25.9089 24.2955 28.4604 29.6811C29.141 25.2178 31.4656 23.606 31.3595 18.9946C31.245 13.7402 24.7621 9.13314 30.9974 6.83594C24.9265 0.215081 8.64334 2.24153 5.98983 10.5229C8.41025 11.0517 11.6819 9.4187 12.1543 11.2611ZM28.4625 34.4722C35.0598 32.01 39.6634 19.8238 34.6228 12.3632C34.731 20.4817 30.4271 27.2337 28.4625 34.4722ZM12.1543 35.2083C9.7214 27.606 7.21773 20.0798 4.17712 13.1035C0.695292 22.305 5.14695 32.2215 12.1543 35.2083ZM15.0492 36.3125C17.4509 37.5901 22.7142 37.1988 25.1971 36.3125C23.6133 31.2908 22.4104 25.8862 19.761 21.9433C18.4894 27.037 16.7412 31.6483 15.0492 36.3125Z" fill="white" fill-opacity="0.9"/>
</svg>
